<svg width="193" height="191" viewBox="0 0 193 191" fill="none" xmlns="http://www.w3.org/2000/svg">
<ellipse cx="96.5" cy="95.5" rx="96.5" ry="95.5" fill="#2A9D8F"/>
<path d="M136.083 61.4979L135.608 56.5104L130.858 58.0938C122.718 60.9222 114.025 61.7901 105.485 60.6271C96.5125 59.2346 87.3283 60.472 79.0438 64.1896C74.6519 66.0597 70.7976 68.9986 67.8317 72.7388C64.8658 76.4791 62.8826 80.9017 62.0625 85.6042C60.9993 91.679 61.5312 97.9258 63.6063 103.733C64.9424 100.717 66.5038 97.8064 68.2771 95.025C72.2996 89.1067 77.8732 84.4095 84.3875 81.4479C90.6632 78.5826 97.5228 77.227 104.417 77.4896C97.8539 78.493 91.5719 80.8521 85.9709 84.4167C83.2692 86.1142 80.7951 88.1494 78.6084 90.4729C76.517 92.7954 74.6731 95.3292 73.1063 98.0334C70.1634 103.686 68.0694 109.741 66.8917 116.004C65.6223 122.287 64.9333 128.674 64.8334 135.083H72.75C73.1221 129.335 73.9026 123.621 75.0855 117.983C80.5774 120.949 86.7362 122.461 92.9771 122.377C98.7978 122.373 104.559 121.202 109.919 118.933C140.042 106.069 136.083 63.2792 136.083 61.4979Z" fill="black"/>
</svg>
