<svg width="193" height="191" viewBox="0 0 193 191" fill="none" xmlns="http://www.w3.org/2000/svg">
<ellipse cx="96.5" cy="95.5" rx="96.5" ry="95.5" fill="#2A9D8F"/>
<path d="M61.625 62.0625C61.625 58.5152 63.0737 55.1132 65.6523 52.6049C68.2309 50.0966 71.7283 48.6875 75.375 48.6875C79.0217 48.6875 82.5191 50.0966 85.0977 52.6049C87.6763 55.1132 89.125 58.5152 89.125 62.0625C89.125 65.6098 87.6763 69.0118 85.0977 71.5201C82.5191 74.0284 79.0217 75.4375 75.375 75.4375C71.7283 75.4375 68.2309 74.0284 65.6523 71.5201C63.0737 69.0118 61.625 65.6098 61.625 62.0625V62.0625Z" fill="black"/>
<path d="M108.231 72.6555L108.519 72.8695C111.436 74.9727 115.09 75.8683 118.684 75.3606C122.277 74.853 125.518 72.9834 127.699 70.1599C129.881 67.3364 130.825 63.7882 130.327 60.2896C129.829 56.791 127.929 53.6261 125.04 51.4856C122.152 49.3451 118.511 48.4027 114.911 48.8641C111.311 49.3256 108.045 51.1534 105.825 53.9486C103.606 56.7439 102.613 60.2797 103.064 63.7843C103.514 67.289 105.372 70.478 108.231 72.6555V72.6555Z" fill="black"/>
<path d="M84.0926 82.125C84.9561 80.5345 86.1405 79.1297 87.5751 77.9947C89.0096 76.8598 90.6648 76.0179 92.4415 75.5196C94.2182 75.0212 96.0801 74.8765 97.9156 75.0943C99.7511 75.312 101.523 75.8876 103.124 76.7867C104.726 77.6858 106.124 78.8898 107.237 80.3269C108.349 81.7639 109.151 83.4044 109.597 85.1502C110.042 86.8959 110.121 88.7111 109.828 90.4872C109.535 92.2632 108.878 93.9636 107.894 95.4866C106.001 98.4166 103.015 100.519 99.5623 101.352C96.1096 102.186 92.4593 101.685 89.3783 99.9551C86.2972 98.2255 84.0252 95.4016 83.0396 92.0768C82.0539 88.7519 82.4314 85.1849 84.0926 82.125V82.125Z" fill="black"/>
<path d="M58.1875 82.125H76.5438C75.7875 84.2182 75.375 86.4719 75.375 88.8125C75.375 93.9485 77.3619 98.6431 80.6275 102.188H78.8125C75.268 102.187 71.81 103.252 68.9117 105.237C66.0134 107.222 63.8166 110.029 62.6219 113.275C60.3142 112.374 58.1535 111.15 56.2075 109.644C51.0375 105.598 47.875 99.6195 47.875 92.1562C47.875 89.4958 48.9615 86.9443 50.8955 85.0631C52.8294 83.1819 55.4525 82.125 58.1875 82.125V82.125Z" fill="black"/>
<path d="M113.188 102.188C120.647 102.188 126.999 106.809 129.371 113.275C131.709 112.346 133.874 111.135 135.793 109.644C140.963 105.598 144.125 99.6195 144.125 92.1562C144.125 89.4958 143.039 86.9443 141.105 85.0631C139.171 83.1819 136.548 82.125 133.813 82.125H115.456C116.213 84.2182 116.625 86.4719 116.625 88.8125C116.631 93.7486 114.761 98.5126 111.373 102.188H113.188Z" fill="black"/>
<path d="M122.723 115.081C123.225 116.258 123.5 117.555 123.5 118.906C123.5 126.369 120.344 132.348 115.168 136.394C110.073 140.373 103.239 142.312 96 142.312C88.7607 142.312 81.9269 140.373 76.8325 136.394C71.6625 132.348 68.5 126.369 68.5 118.906C68.4964 117.588 68.7607 116.282 69.2776 115.063C69.7946 113.845 70.5541 112.737 71.5124 111.805C72.4707 110.873 73.609 110.134 74.8618 109.631C76.1146 109.129 77.4573 108.871 78.8125 108.875H113.188C115.23 108.875 117.227 109.464 118.924 110.569C120.622 111.674 121.944 113.244 122.723 115.081Z" fill="black"/>
</svg>
