<svg width="195" height="191" viewBox="0 0 195 191" fill="none" xmlns="http://www.w3.org/2000/svg">
<ellipse cx="97.6665" cy="95.5" rx="97" ry="95.5" fill="#2A9D8F"/>
<path fill-rule="evenodd" clip-rule="evenodd" d="M39.7915 46.75H138.604V62.375H132.229V53H46.1665V124.875H114.338V131.125H39.7915V46.75ZM135.417 87.375C137.953 87.375 140.385 86.3873 142.178 84.6291C143.972 82.871 144.979 80.4864 144.979 78C144.979 75.5136 143.972 73.129 142.178 71.3709C140.385 69.6127 137.953 68.625 135.417 68.625C132.88 68.625 130.448 69.6127 128.655 71.3709C126.861 73.129 125.854 75.5136 125.854 78C125.854 80.4864 126.861 82.871 128.655 84.6291C130.448 86.3873 132.88 87.375 135.417 87.375ZM141.89 93.6562C146.031 93.6562 149.308 95.4813 151.453 98.3C153.458 100.941 154.306 104.206 154.497 107.222C154.691 110.281 154.242 113.488 153.231 116.347C152.275 119.066 150.659 121.878 148.167 123.806V154.562C148.169 155.74 147.719 156.876 146.906 157.743C146.093 158.61 144.977 159.146 143.78 159.243C142.583 159.34 141.392 158.992 140.445 158.268C139.498 157.544 138.863 156.496 138.668 155.334L134.556 131.125H133.606L128.959 155.425C128.738 156.572 128.089 157.597 127.138 158.299C126.188 159.002 125.004 159.331 123.818 159.223C122.633 159.116 121.531 158.578 120.729 157.716C119.926 156.854 119.481 155.73 119.479 154.562V109.978C118.842 110.93 118.213 111.887 117.592 112.85L117.343 113.234L117.28 113.334L117.264 113.363C116.834 114.039 116.236 114.596 115.525 114.983C114.815 115.37 114.015 115.572 113.203 115.572H97.2653C95.9973 115.572 94.7811 115.078 93.8845 114.199C92.9878 113.32 92.4841 112.128 92.4841 110.884C92.4841 109.641 92.9878 108.449 93.8845 107.57C94.7811 106.691 95.9973 106.197 97.2653 106.197H110.58C111.354 105.022 112.374 103.497 113.445 101.966C114.561 100.369 115.791 98.6781 116.888 97.3531C117.42 96.7063 118.016 96.0312 118.615 95.4781C118.908 95.2063 119.316 94.8531 119.814 94.5406C120.691 93.9759 121.716 93.67 122.765 93.6594H141.89V93.6562Z" fill="black"/>
</svg>
