<svg width="195" height="191" viewBox="0 0 195 191" fill="none" xmlns="http://www.w3.org/2000/svg">
<ellipse cx="97.3333" cy="95.5" rx="97" ry="95.5" fill="#2A9D8F"/>
<path d="M51.0417 76.75C49.3067 76.75 47.6428 77.426 46.416 78.6294C45.1892 79.8328 44.5 81.4649 44.5 83.1667C44.5 84.8685 45.1892 86.5006 46.416 87.7039C47.6428 88.9073 49.3067 89.5833 51.0417 89.5833H142.625C144.36 89.5833 146.024 88.9073 147.251 87.7039C148.477 86.5006 149.167 84.8685 149.167 83.1667C149.167 81.4649 148.477 79.8328 147.251 78.6294C146.024 77.426 144.36 76.75 142.625 76.75H51.0417Z" fill="black"/>
<path d="M51.0417 102.417C49.3067 102.417 47.6428 103.093 46.416 104.296C45.1892 105.499 44.5 107.132 44.5 108.833C44.5 110.535 45.1892 112.167 46.416 113.371C47.6428 114.574 49.3067 115.25 51.0417 115.25H142.625C144.36 115.25 146.024 114.574 147.251 113.371C148.477 112.167 149.167 110.535 149.167 108.833C149.167 107.132 148.477 105.499 147.251 104.296C146.024 103.093 144.36 102.417 142.625 102.417H51.0417Z" fill="black"/>
</svg>
