<svg width="193" height="191" viewBox="0 0 193 191" fill="none" xmlns="http://www.w3.org/2000/svg">
<ellipse cx="96.5" cy="95.5" rx="96.5" ry="95.5" fill="#2A9D8F"/>
<path fill-rule="evenodd" clip-rule="evenodd" d="M95.4857 104.674V143C83.6449 142.993 72.2335 138.528 63.487 130.481C54.7405 122.433 49.2892 111.383 48.2011 99.4952C47.1131 87.607 50.4666 75.7376 57.6047 66.2122C64.7428 56.6869 75.1511 50.192 86.7906 48L95.4857 56.767H119.243C125.535 56.767 131.571 59.2841 136.025 63.7659C140.479 68.2477 142.987 74.3281 143 80.6727V123.885C142.987 128.959 140.979 133.821 137.417 137.404C133.854 140.988 129.027 143 123.994 143V133.419C126.515 133.419 128.932 132.409 130.714 130.612C132.496 128.815 133.497 126.378 133.497 123.837C133.497 121.296 132.496 118.859 130.714 117.062C128.932 115.265 126.515 114.256 123.994 114.256H104.989L95.4857 104.674ZM121.619 90.3021C123.509 90.3021 125.322 89.545 126.658 88.1973C127.995 86.8497 128.746 85.0219 128.746 83.116C128.746 81.2101 127.995 79.3823 126.658 78.0347C125.322 76.687 123.509 75.9299 121.619 75.9299C119.728 75.9299 117.916 76.687 116.579 78.0347C115.242 79.3823 114.491 81.2101 114.491 83.116C114.491 85.0219 115.242 86.8497 116.579 88.1973C117.916 89.545 119.728 90.3021 121.619 90.3021V90.3021Z" fill="black"/>
</svg>
