<svg width="194" height="191" viewBox="0 0 194 191" fill="none" xmlns="http://www.w3.org/2000/svg">
<ellipse cx="97" cy="95.5" rx="97" ry="95.5" fill="#2A9D8F"/>
<path d="M76.8648 99.8168L87.3389 105.702L73.5356 81.8976L45.4375 82.1702L55.9184 88.0518L47.5069 102.221C46.6544 103.655 45.7572 105.979 47.0016 108.079L61.2809 132.132C63.8384 136.443 68.2934 136.417 71.5195 136.417H94.3411V110.639H70.4402L76.8648 99.8168Z" fill="black"/>
<path d="M146.1 96.5633L134.687 77.3384L111.737 90.2253L123.685 110.358L110.841 110.356V98.5963L96.5532 122.125L110.848 145.656L110.845 133.888H127.659C129.364 133.888 131.884 133.482 133.128 131.385L147.406 107.332C149.962 103.018 147.714 99.2818 146.1 96.5633Z" fill="black"/>
<path d="M97.9676 63.8079L104.387 74.6317L93.9148 80.5167L122.011 80.7858L135.814 56.9783L125.339 62.865L116.932 48.6992C116.078 47.2631 114.456 45.3438 111.969 45.3438H83.4149C78.2965 45.3438 76.0913 49.1088 74.4809 51.8273L63.0684 71.0522L86.0188 83.9407L97.9676 63.8079Z" fill="black"/>
</svg>
